<svg xmlns="http://www.w3.org/2000/svg" width="751.258" height="200.864" viewBox="0 0 751.258 200.864">
  <g id="Groupe_1657" data-name="Groupe 1657" transform="translate(-100 -487.531)">
    <path id="Tracé_207" data-name="Tracé 207" d="M589.859,347.888a32.412,32.412,0,0,1-14.1-13.382q-4.837-8.7-4.836-20.569,0-11.924,4.836-20.622a32.43,32.43,0,0,1,14.1-13.382q9.259-4.683,22.311-4.683t22.336,4.683a32.253,32.253,0,0,1,14.1,13.382q4.8,8.7,4.808,20.622,0,11.872-4.808,20.569a32.235,32.235,0,0,1-14.1,13.382q-9.287,4.683-22.336,4.683T589.859,347.888Z" transform="translate(-470.926 274.052)" fill="#fdf6bf"/>
    <path id="Tracé_208" data-name="Tracé 208" d="M622.146,347.888a32.4,32.4,0,0,1-14.1-13.382q-4.838-8.7-4.836-20.569,0-11.924,4.836-20.622a32.412,32.412,0,0,1,14.1-13.382q9.259-4.683,22.311-4.683t22.336,4.683a32.245,32.245,0,0,1,14.1,13.382q4.81,8.7,4.811,20.622,0,11.872-4.811,20.569a32.228,32.228,0,0,1-14.1,13.382q-9.287,4.683-22.336,4.683T622.146,347.888Z" transform="translate(58.787 274.052)" fill="#fdf6bf"/>
    <path id="Tracé_210" data-name="Tracé 210" d="M622.146,347.888a32.4,32.4,0,0,1-14.1-13.382q-4.838-8.7-4.836-20.569,0-11.924,4.836-20.622a32.412,32.412,0,0,1,14.1-13.382q9.259-4.683,22.311-4.683t22.336,4.683a32.245,32.245,0,0,1,14.1,13.382q4.81,8.7,4.811,20.622,0,11.872-4.811,20.569a32.228,32.228,0,0,1-14.1,13.382q-9.287,4.683-22.336,4.683T622.146,347.888Z" transform="translate(165.557 274.052)" fill="#fdf6bf"/>
    <path id="Tracé_334" data-name="Tracé 334" d="M375.218,291.378a151.28,151.28,0,0,0-44.177,97.855A151.816,151.816,0,0,0,473.073,247.2a151.281,151.281,0,0,0-97.855,44.177" transform="translate(461.521 78.652) rotate(45)" fill="#fdf6bf"/>
  </g>
</svg>
