<svg id="Groupe_1352" data-name="Groupe 1352" xmlns="http://www.w3.org/2000/svg" width="207.359" height="207.359" viewBox="0 0 207.359 207.359">
  <path id="Tracé_66" data-name="Tracé 66" d="M840.72,346.492H759.445l47.482-19.677-3.422-7.7-47.053,19.677,57.32-57.748-5.989-5.989-57.748,57.32,19.677-47.054-7.7-3.422-19.677,47.481V248.108h-8.556v81.274L714.1,281.9l-7.7,3.422,19.677,47.054-57.747-57.32-5.989,5.989,57.32,58.722L672.61,319.116l-3.422,7.7,47.481,20.652-81.275-.975v8.555l81.275.975-47.481,18.7,3.422,7.7,47.054-18.7-57.32,56.773,5.989,5.989,57.747-56.345L706.4,416.217l7.7,3.422,19.677-46.506v80.3h8.556v-80.3l19.677,46.506,7.7-3.422-19.677-47.053,57.748,57.32,5.989-5.989-57.32-57.748L803.5,382.424l3.422-7.7-47.482-19.677H840.72Z" transform="translate(-634.378 -247.091)" fill="#fdf6bf"/>
  <path id="Tracé_67" data-name="Tracé 67" d="M744.239,455.338H733.653v-76.3l-18.126,42.838-9.566-4.245,18.071-42.316L669.211,428.8l-7.423-7.423,54.5-53.976-43.32,17.218-4.245-9.565,43.629-17.186-77.083-.925V346.35l77.257.925-43.794-19.051,4.253-9.565,43.186,18.956L661.8,281.924l7.415-7.415.719.711,54.118,53.715L705.97,285.686l9.565-4.253,18.118,43.723V247.979h10.586v77.178l18.119-43.723,9.565,4.253-18.087,43.249,54.838-54.427,7.422,7.423-.711.719L761.661,336.77l43.257-18.095,4.253,9.565-43.723,18.119h77.178v10.6H765.448l43.723,18.11-4.253,9.565-43.257-18.087L816.1,421.386l-7.422,7.423-.719-.712-54.118-53.715,18.087,43.249-9.557,4.245-18.126-42.838Zm-8.554-2.031h6.521V369l21.225,50.174,5.843-2.593-21.265-50.854,60.656,60.206,4.561-4.553-60.213-60.656,50.854,21.265,2.593-5.834L755.211,354.92h85.375V348.4H755.218l51.241-21.233-2.593-5.834-50.854,21.257,60.213-60.648-4.561-4.553-60.656,60.205,21.265-50.854-5.834-2.593-21.233,51.241V250.011h-6.521v85.375l-21.233-51.241-5.834,2.593,21.265,50.854-60.656-60.205-4.562,4.553,60.277,61.755-50.924-22.348-2.593,5.834,51.162,22.253L637.3,348.406v6.53l85.462,1.02L671.44,376.169,674.033,382l50.782-20.182-60.141,59.565,4.553,4.553,60.679-59.2-21.28,49.842,5.834,2.593L735.685,369Z" transform="translate(-635.266 -247.979)" fill="#fdf6bf"/>
</svg>
