<svg xmlns="http://www.w3.org/2000/svg" width="214.985" height="68.977" viewBox="0 0 214.985 68.977"><defs><style>.a{fill:#fe5442;}</style></defs><g transform="translate(-87.599 -222.446)"><path class="a" d="M131.448,245.04a23.156,23.156,0,0,1,10.061,6.915,16.637,16.637,0,0,1,3.749,10.9,23.861,23.861,0,0,1-.839,6.008H103.853a10.4,10.4,0,0,0,4.005,7.615q3.586,2.819,10.06,2.818a19.7,19.7,0,0,0,8.593-1.584,9.414,9.414,0,0,0,4.68-5.216l13.134,5.45a19.262,19.262,0,0,1-5.123,8.523,24.2,24.2,0,0,1-9.384,5.494,40.962,40.962,0,0,1-13.017,1.911,35.852,35.852,0,0,1-15.486-3.121,23.3,23.3,0,0,1-10.154-8.9A25.291,25.291,0,0,1,87.6,268.3a23.834,23.834,0,0,1,4.029-13.949,24.86,24.86,0,0,1,10.829-8.732,37.7,37.7,0,0,1,15.09-2.934A39.523,39.523,0,0,1,131.448,245.04Zm-2.724,18.886a6.027,6.027,0,0,0-1.35-3.844,9.1,9.1,0,0,0-3.913-2.7,16.609,16.609,0,0,0-6.054-1q-5.916,0-9.408,2.561a9.759,9.759,0,0,0-4.052,6.893h24.5A6.928,6.928,0,0,0,128.724,263.926Z" transform="translate(0 -2.45)"/><path class="a" d="M202.548,268.787a27.336,27.336,0,0,0,7.941,5.682,20.427,20.427,0,0,0,8.686,2l-.047,14.9a30.4,30.4,0,0,1-13.483-2.98,31.666,31.666,0,0,1-10.6-8.36,42.236,42.236,0,0,1-7.126-12.644c-5.341,5.962-8.835,15.06-10.48,24.033H160.352l.047-68.977h17.093L177.445,274h.745a43.946,43.946,0,0,1,4.7-15.09,34.563,34.563,0,0,1,12.064-13.041q8.2-5.45,21-5.682V255a40.3,40.3,0,0,0-9.99,1.35,37.022,37.022,0,0,0-9.338,3.913A30.536,30.536,0,0,0,202.548,268.787Z" transform="translate(-8.807 0)"/><path class="a" d="M234.324,291.423V222.446H251.65v68.977Z" transform="translate(-17.762 0)"/><path class="a" d="M319.837,254.657a24.03,24.03,0,0,0-10.712-8.873,40,40,0,0,0-16.371-3.1,42.317,42.317,0,0,0-17.046,3.12,24.1,24.1,0,0,0-10.874,8.872,26.611,26.611,0,0,0-.024,27.2,24.026,24.026,0,0,0,10.736,8.872,40.834,40.834,0,0,0,16.7,3.121,41.43,41.43,0,0,0,16.836-3.121,23.99,23.99,0,0,0,10.782-8.872,26.652,26.652,0,0,0-.024-27.223Zm-7.78,14.879H298.205l7.676,2.65-.887,1.662-7.607-2.653,9.794,8.223-1.535,1.278-.2-.163-9.7-8.019,3.2,6.375-1.965.73-3.22-6.345v11.5H291.6v-11.5l-3.222,6.345-1.967-.73.052-.1,3.142-6.132-9.885,8.039-1.537-1.28,9.814-8.1-7.628,2.526-.886-1.662.113-.037,7.538-2.474-13.826-.137v-1.841h.1l13.778.137-7.7-2.791.885-1.66.082.03,7.507,2.746-9.775-8.345,1.535-1.277,9.892,8.182-3.2-6.376,1.967-.729.04.081,3.179,6.393V252.452h2.169v11.631l3.219-6.473,1.967.729-.051.1-3.15,6.277,9.894-8.182,1.536,1.277-.224.19-3.069,2.577-2.319,1.947-4.182,3.512,7.607-2.653.887,1.661-7.677,2.651h13.853Z" transform="translate(-21.002 -2.45)"/></g></svg>