<svg xmlns="http://www.w3.org/2000/svg" width="37.822" height="37.822" viewBox="0 0 37.822 37.822"><defs><style>.a{fill:#fe5442;}</style></defs><path class="a" d="M672.845,266.053H658.021l8.661-3.589-.624-1.4-8.582,3.589,10.455-10.533-1.092-1.092L656.3,263.478l3.589-8.583-1.4-.624-3.589,8.66V248.108H653.34v14.824l-3.589-8.66-1.4.624,3.589,8.583L641.4,253.023l-1.092,1.092,10.455,10.711-8.582-3.767-.624,1.4,8.66,3.767-14.824-.178v1.561l14.824.178-8.66,3.411.624,1.4,8.582-3.411L640.31,279.551l1.092,1.092,10.533-10.277-3.589,8.4,1.4.624,3.589-8.483v14.646H654.9V270.912l3.589,8.483,1.4-.624-3.589-8.582,10.533,10.455,1.092-1.092-10.455-10.533,8.582,3.589.624-1.4-8.661-3.589h14.824Z" transform="translate(-635.209 -247.922)"/><path class="a" d="M655.142,285.8h-1.931V271.884l-3.306,7.814-1.745-.774,3.3-7.718-10,9.756-1.354-1.354,9.94-9.845-7.9,3.14-.774-1.745,7.958-3.135-14.06-.169v-1.932l14.091.169-7.988-3.475.776-1.745,7.877,3.458-9.916-10.158,1.353-1.352.131.13,9.871,9.8-3.3-7.889,1.745-.776,3.3,7.975V247.979h1.931v14.077l3.3-7.975,1.745.776-3.3,7.889,10-9.927,1.354,1.354-.13.131-9.8,9.871,7.89-3.3.776,1.745-7.975,3.3h14.077v1.934H659.011l7.975,3.3-.776,1.745-7.89-3.3,9.929,10-1.354,1.354-.131-.13-9.871-9.8,3.3,7.889-1.743.774-3.306-7.814Zm-1.56-.371h1.189V270.053l3.871,9.152,1.066-.473-3.879-9.276,11.064,10.981.832-.831-10.983-11.064,9.276,3.879.473-1.064-9.348-3.873h15.572V266.3H657.145l9.346-3.873-.473-1.064-9.276,3.877,10.983-11.062-.832-.831L655.83,264.324l3.879-9.276-1.064-.473-3.873,9.346V248.35h-1.189v15.572l-3.873-9.346-1.064.473,3.879,9.276L641.46,253.343l-.832.831,10.994,11.264-9.288-4.076-.473,1.064,9.332,4.059-15.556-.187v1.191l15.588.186-9.361,3.687.473,1.064,9.263-3.681-10.97,10.865.83.831,11.068-10.8-3.881,9.091,1.064.473,3.871-9.152Z" transform="translate(-635.266 -247.979)"/></svg>